<svg style="color: white; font-size: 2rem;" xmlns="http://www.w3.org/2000/svg" width="1em" height="1em" viewBox="0 0 16 16"><path fill="currentColor" d="M15 3.784a5.6 5.6 0 0 1-.65.803a6 6 0 0 1-.786.68a5 5 0 0 1 .014.377q0 .86-.184 1.702a8.5 8.5 0 0 1-.534 1.627a8.4 8.4 0 0 1-1.264 2.04a7.8 7.8 0 0 1-1.72 1.521a7.8 7.8 0 0 1-2.095.95a8.5 8.5 0 0 1-2.379.329a8.2 8.2 0 0 1-2.293-.325A8 8 0 0 1 1 12.52a5.76 5.76 0 0 0 4.252-1.19a2.84 2.84 0 0 1-2.273-1.19a2.9 2.9 0 0 1-.407-.8q.137.021.27.035a2.8 2.8 0 0 0 1.022-.089a2.8 2.8 0 0 1-.926-.362a3 3 0 0 1-.728-.633a2.84 2.84 0 0 1-.65-1.822v-.033q.603.34 1.306.362a2.94 2.94 0 0 1-.936-1.04a3 3 0 0 1-.253-.649a2.95 2.95 0 0 1 .007-1.453q.095-.364.294-.693q.546.677 1.216 1.213a8.2 8.2 0 0 0 3.008 1.525a8 8 0 0 0 1.695.263a2 2 0 0 1-.058-.325a3 3 0 0 1-.017-.331q0-.596.226-1.118a2.9 2.9 0 0 1 1.528-1.528a2.8 2.8 0 0 1 1.117-.225a2.85 2.85 0 0 1 2.099.909a5.7 5.7 0 0 0 1.818-.698a2.82 2.82 0 0 1-1.258 1.586A5.7 5.7 0 0 0 15 3.785z"/></svg>